<?xml version="1.0" encoding="utf-8"?>
<!-- Generator: Adobe Illustrator 24.0.0, SVG Export Plug-In . SVG Version: 6.00 Build 0)  -->
<svg version="1.1" id="Layer_1" xmlns="http://www.w3.org/2000/svg" xmlns:xlink="http://www.w3.org/1999/xlink" x="0px" y="0px"
	 viewBox="0 0 184 42" style="enable-background:new 0 0 184 42;" xml:space="preserve">
<style type="text/css">
	.st0{fill-rule:evenodd;clip-rule:evenodd;fill:#17181B;}
</style>
<g>
	<path class="st0" d="M35.1,24.5c-0.7,0.5-1.6,0.5-2.2,0.1c-0.8-0.5-1.3-1.5-1.3-3v-4.5c0-2.2-0.9-3.7-2.3-4.1
		c-2.4-0.7-4.2,2.3-4.9,3.4l-4.3,6.9v-8.5c0-1.9-0.7-3.1-1.9-3.5c-0.8-0.2-2-0.1-3.1,1.6L5.6,28.4c-1.3-2.4-1.9-5.1-1.9-7.9
		c0-9.2,7.4-16.8,16.5-16.8s16.5,7.5,16.5,16.8c0,0,0,0,0,0c0,0,0,0,0,0C36.8,22.4,36.2,23.8,35.1,24.5L35.1,24.5z M40.4,20.5
		L40.4,20.5L40.4,20.5L40.4,20.5C40.3,9.1,31.3,0,20.2,0C9.1,0,0,9.2,0,20.5C0,31.8,9.1,41,20.2,41c5.1,0,10-1.9,13.7-5.5
		c0.7-0.7,0.8-1.9,0.1-2.6c-0.7-0.7-1.8-0.8-2.6-0.1c0,0,0,0,0,0c-3,2.9-7.1,4.5-11.2,4.5c-4.9,0-9.3-2.2-12.3-5.6l8.6-13.8v6.4
		c0,3.1,1.2,4.1,2.2,4.3c1,0.3,2.5,0.1,4.1-2.5l4.7-7.7c0.2-0.2,0.3-0.5,0.4-0.6v3.9c0,2.9,1.1,5.2,3.1,6.3c1.8,1,4.1,0.9,5.9-0.2
		C39.3,26.3,40.5,23.6,40.4,20.5z M320.5,180.1"/>
	<g>
		<path d="M67.3,31.1h-4.6l-2.9-4.9c-0.6-1-1.1-1.7-1.5-1.9s-0.8-0.4-1.2-0.4h-1.2v7.3h-4V12.4h6.6c4.5,0,6.7,1.7,6.7,5.1
			c0,1.3-0.4,2.4-1.1,3.3c-0.7,0.9-1.8,1.6-3.1,1.9v0c0.9,0.3,1.8,1.2,2.9,2.9L67.3,31.1z M55.9,15.4v5.4h2c0.9,0,1.7-0.3,2.3-0.8
			c0.6-0.5,0.9-1.2,0.9-2c0-1.7-1-2.5-3-2.5H55.9z"/>
		<path d="M80,25.5h-8.8c0.1,2.1,1.4,3.1,3.7,3.1c1.5,0,2.8-0.4,3.9-1.1v2.9c-1.2,0.7-2.8,1-4.8,1c-2.1,0-3.8-0.6-5-1.8
			c-1.2-1.2-1.8-2.9-1.8-5c0-2.1,0.6-3.9,1.9-5.2c1.3-1.3,2.8-2,4.7-2c1.9,0,3.4,0.6,4.4,1.7c1.1,1.1,1.6,2.7,1.6,4.7V25.5z
			 M76.3,23.1c0-2-0.8-3-2.4-3c-0.7,0-1.3,0.3-1.8,0.8c-0.5,0.5-0.8,1.3-1,2.2H76.3z"/>
		<path d="M82.8,18.6c0.6-0.3,1.4-0.6,2.4-0.8c1-0.2,1.9-0.3,2.6-0.3c3.7,0,5.6,1.9,5.6,5.6v8.1h-3.7v-1.9h0c-0.9,1.5-2.2,2.3-4,2.3
			c-1.3,0-2.3-0.4-3-1.1c-0.8-0.7-1.1-1.7-1.1-2.9c0-2.6,1.5-4.1,4.6-4.5l3.7-0.5c0-1.6-0.8-2.3-2.4-2.3c-1.6,0-3.1,0.5-4.5,1.5
			V18.6z M87.3,25.1c-1.4,0.2-2.1,0.8-2.1,1.9c0,0.5,0.2,0.9,0.5,1.2c0.3,0.3,0.8,0.5,1.4,0.5c0.8,0,1.5-0.3,2-0.8
			c0.5-0.6,0.8-1.3,0.8-2.1v-1L87.3,25.1z"/>
		<path d="M106.8,30.6c-0.9,0.5-2.3,0.8-4,0.8c-2,0-3.7-0.6-4.9-1.9c-1.3-1.2-1.9-2.8-1.9-4.8c0-2.3,0.7-4.1,2-5.4s3.2-2,5.4-2
			c1.5,0,2.7,0.2,3.4,0.6v3.3c-0.9-0.7-1.9-1-2.9-1c-1.2,0-2.1,0.4-2.9,1.1c-0.7,0.7-1.1,1.7-1.1,3c0,1.2,0.3,2.2,1,2.9
			c0.7,0.7,1.6,1.1,2.8,1.1c1,0,2.1-0.3,3-1V30.6z"/>
		<path d="M117.5,31c-0.6,0.3-1.5,0.5-2.7,0.5c-2.8,0-4.3-1.5-4.3-4.5v-6.3h-2.2v-2.9h2.2v-2.9l3.9-1.1v4h3v2.9h-3v5.6
			c0,1.4,0.6,2.1,1.7,2.1c0.4,0,0.9-0.1,1.4-0.4V31z"/>
		<path d="M141,30.4c-1.4,0.7-3.1,1-5.3,1c-2.8,0-5.1-0.8-6.7-2.5c-1.7-1.7-2.5-3.9-2.5-6.8c0-3,0.9-5.4,2.8-7.3
			c1.8-1.9,4.2-2.8,7.2-2.8c1.8,0,3.4,0.2,4.6,0.7v3.9c-1.3-0.7-2.7-1.1-4.3-1.1c-1.8,0-3.3,0.6-4.4,1.8c-1.1,1.2-1.6,2.7-1.6,4.6
			c0,1.8,0.5,3.3,1.6,4.4s2.4,1.7,4.2,1.7c1.7,0,3.2-0.4,4.6-1.2V30.4z"/>
		<path d="M161.4,31.1V19.8c0-1,0.1-2.4,0.2-4h-0.1c-0.2,1.2-0.4,2-0.6,2.4l-4.6,12.9h-3.2l-4.7-12.8c-0.1-0.3-0.3-1.1-0.6-2.5h-0.1
			c0.1,1.6,0.2,3.1,0.2,4.7v10.6h-3.6V12.4h5.8l4,11.3c0.3,0.9,0.6,1.8,0.7,2.6h0.1c0.3-1,0.5-1.9,0.8-2.7l4-11.3h5.6v18.7H161.4z"
			/>
		<path d="M183.1,30.4c-1.4,0.7-3.1,1-5.3,1c-2.8,0-5.1-0.8-6.7-2.5c-1.7-1.7-2.5-3.9-2.5-6.8c0-3,0.9-5.4,2.8-7.3
			c1.8-1.9,4.2-2.8,7.2-2.8c1.8,0,3.4,0.2,4.6,0.7v3.9c-1.3-0.7-2.7-1.1-4.3-1.1c-1.8,0-3.3,0.6-4.4,1.8c-1.1,1.2-1.6,2.7-1.6,4.6
			c0,1.8,0.5,3.3,1.6,4.4s2.4,1.7,4.2,1.7c1.7,0,3.2-0.4,4.6-1.2V30.4z"/>
	</g>
</g>
</svg>
